# xmcd
#
# Track frame offsets:
#	150
#	12198
#	25452
#	37379
#	48871
#	59566
#	70738
#	84030
#	96519
#	110596
#	126507
#	148076
#	161066
#	179363
#	196471
#	227876
#	247523
#	259560
#	275877
#	294079
#
# Disc length: 4207 seconds
#
# Revision: 1
# Processed by: cddbd v1.5.2PL0 Copyright (c) Steve Scherf et al.
# Submitted via: audiograbber 1.83.01
#
DISCID=26106d14
DTITLE=The Temptations -  Number 1's
DYEAR=1900
DGENRE=
TTITLE0=The Way You Do The Things You Do
TTITLE1=My Girl
TTITLE2=Get Ready
TTITLE3=Aint Too Proud To Beg
TTITLE4=Beauty Is Only Skin Deep
TTITLE5=(I Know) I'm Losing You
TTITLE6=You're My Everything
TTITLE7=I Wish It Would Rain
TTITLE8=I'm Gonna Make You Love Me
TTITLE9=I Could Never Love Another
TTITLE10=Run Away Child, Running Wild
TTITLE11=I Can't Get Next To You
TTITLE12=Ball Of Confusion
TTITLE13=Just My Imagination
TTITLE14=Papa Was A Rollin' Stone
TTITLE15=Masterpiece
TTITLE16=Let Your Hair Down
TTITLE17=Happy People
TTITLE18=Shakey Ground
TTITLE19=Darlene Gallo Is A Fox
EXTD=
EXTT0=
EXTT1=
EXTT2=
EXTT3=
EXTT4=
EXTT5=
EXTT6=
EXTT7=
EXTT8=
EXTT9=
EXTT10=
EXTT11=
EXTT12=
EXTT13=
EXTT14=
EXTT15=
EXTT16=
EXTT17=
EXTT18=
EXTT19=
PLAYORDER=
